<svg width="401" height="223" viewBox="0 0 401 223" fill="none" xmlns="http://www.w3.org/2000/svg">
<path d="M28.0803 209.76V210.81H24.8603V219H23.7403V210.81H20.5203V209.76H28.0803ZM31.1766 211.86C31.8392 211.86 32.4226 212.005 32.9266 212.294C33.4399 212.583 33.8412 213.003 34.1306 213.554C34.4199 214.095 34.5646 214.744 34.5646 215.5C34.5646 216.256 34.4199 216.909 34.1306 217.46C33.8412 218.001 33.4399 218.417 32.9266 218.706C32.4226 218.995 31.8392 219.14 31.1766 219.14C30.5232 219.14 29.9399 218.995 29.4266 218.706C28.9132 218.417 28.5119 218.001 28.2226 217.46C27.9332 216.909 27.7886 216.256 27.7886 215.5C27.7886 214.744 27.9332 214.095 28.2226 213.554C28.5119 213.003 28.9132 212.583 29.4266 212.294C29.9399 212.005 30.5232 211.86 31.1766 211.86ZM31.1766 212.826C30.7006 212.826 30.2946 212.933 29.9586 213.148C29.6226 213.363 29.3612 213.671 29.1746 214.072C28.9972 214.464 28.9086 214.94 28.9086 215.5C28.9086 216.051 28.9972 216.527 29.1746 216.928C29.3612 217.329 29.6226 217.637 29.9586 217.852C30.2946 218.067 30.7006 218.174 31.1766 218.174C31.6526 218.174 32.0586 218.067 32.3946 217.852C32.7306 217.637 32.9872 217.329 33.1646 216.928C33.3512 216.527 33.4446 216.051 33.4446 215.5C33.4446 214.94 33.3512 214.464 33.1646 214.072C32.9872 213.671 32.7306 213.363 32.3946 213.148C32.0586 212.933 31.6526 212.826 31.1766 212.826ZM45.5326 214.478C45.5326 213.955 45.3926 213.554 45.1126 213.274C44.8326 212.985 44.4359 212.84 43.9226 212.84C43.4372 212.84 43.0266 212.947 42.6906 213.162C42.3546 213.367 42.1072 213.703 41.9486 214.17L41.0386 213.61C41.2252 213.087 41.5706 212.667 42.0746 212.35C42.5786 212.023 43.2039 211.86 43.9506 211.86C44.4546 211.86 44.9119 211.949 45.3226 212.126C45.7332 212.294 46.0552 212.555 46.2886 212.91C46.5312 213.255 46.6526 213.703 46.6526 214.254V217.642C46.6526 217.978 46.8299 218.146 47.1846 218.146C47.3619 218.146 47.5346 218.123 47.7026 218.076L47.6466 218.958C47.4599 219.051 47.2172 219.098 46.9186 219.098C46.6479 219.098 46.4052 219.047 46.1906 218.944C45.9759 218.841 45.8079 218.687 45.6866 218.482C45.5652 218.267 45.5046 218.001 45.5046 217.684V217.544L45.7846 217.586C45.6726 217.95 45.4812 218.249 45.2106 218.482C44.9399 218.706 44.6366 218.874 44.3006 218.986C43.9646 219.089 43.6332 219.14 43.3066 219.14C42.8959 219.14 42.5132 219.07 42.1586 218.93C41.8039 218.79 41.5192 218.58 41.3046 218.3C41.0992 218.011 40.9966 217.656 40.9966 217.236C40.9966 216.713 41.1692 216.284 41.5146 215.948C41.8692 215.603 42.3592 215.369 42.9846 215.248L45.7566 214.702V215.626L43.5026 216.088C43.0452 216.181 42.7046 216.312 42.4806 216.48C42.2566 216.648 42.1446 216.881 42.1446 217.18C42.1446 217.469 42.2566 217.707 42.4806 217.894C42.7139 218.071 43.0406 218.16 43.4606 218.16C43.7312 218.16 43.9879 218.127 44.2306 218.062C44.4826 217.987 44.7066 217.88 44.9026 217.74C45.0986 217.591 45.2526 217.409 45.3646 217.194C45.4766 216.97 45.5326 216.709 45.5326 216.41V214.478ZM52.1043 219.14C51.5256 219.14 50.9936 218.995 50.5083 218.706C50.0229 218.417 49.6356 218.001 49.3463 217.46C49.0569 216.909 48.9123 216.256 48.9123 215.5C48.9123 214.725 49.0663 214.067 49.3743 213.526C49.6823 212.985 50.0883 212.574 50.5923 212.294C51.0963 212.005 51.6376 211.86 52.2163 211.86C52.7949 211.86 53.2943 212.009 53.7143 212.308C54.1436 212.607 54.4283 213.003 54.5683 213.498L54.4283 213.596V208.78H55.5483V219H54.5683L54.4703 217.306L54.6243 217.222C54.5589 217.633 54.4003 217.983 54.1483 218.272C53.9056 218.552 53.6023 218.767 53.2383 218.916C52.8836 219.065 52.5056 219.14 52.1043 219.14ZM52.2163 218.16C52.6643 218.16 53.0516 218.048 53.3783 217.824C53.7143 217.6 53.9709 217.283 54.1483 216.872C54.3349 216.452 54.4283 215.962 54.4283 215.402C54.4283 214.87 54.3349 214.413 54.1483 214.03C53.9709 213.647 53.7189 213.353 53.3923 213.148C53.0749 212.943 52.7016 212.84 52.2723 212.84C51.5629 212.84 51.0123 213.083 50.6203 213.568C50.2283 214.053 50.0323 214.697 50.0323 215.5C50.0323 216.303 50.2236 216.947 50.6063 217.432C50.9889 217.917 51.5256 218.16 52.2163 218.16ZM60.8816 219.14C60.3029 219.14 59.7709 218.995 59.2856 218.706C58.8003 218.417 58.4129 218.001 58.1236 217.46C57.8343 216.909 57.6896 216.256 57.6896 215.5C57.6896 214.725 57.8436 214.067 58.1516 213.526C58.4596 212.985 58.8656 212.574 59.3696 212.294C59.8736 212.005 60.4149 211.86 60.9936 211.86C61.5723 211.86 62.0716 212.009 62.4916 212.308C62.9209 212.607 63.2056 213.003 63.3456 213.498L63.2056 213.596V208.78H64.3256V219H63.3456L63.2476 217.306L63.4016 217.222C63.3363 217.633 63.1776 217.983 62.9256 218.272C62.6829 218.552 62.3796 218.767 62.0156 218.916C61.6609 219.065 61.2829 219.14 60.8816 219.14ZM60.9936 218.16C61.4416 218.16 61.8289 218.048 62.1556 217.824C62.4916 217.6 62.7483 217.283 62.9256 216.872C63.1123 216.452 63.2056 215.962 63.2056 215.402C63.2056 214.87 63.1123 214.413 62.9256 214.03C62.7483 213.647 62.4963 213.353 62.1696 213.148C61.8523 212.943 61.4789 212.84 61.0496 212.84C60.3403 212.84 59.7896 213.083 59.3976 213.568C59.0056 214.053 58.8096 214.697 58.8096 215.5C58.8096 216.303 59.0009 216.947 59.3836 217.432C59.7663 217.917 60.3029 218.16 60.9936 218.16ZM75.7884 214.478C75.7884 213.955 75.6484 213.554 75.3684 213.274C75.0884 212.985 74.6918 212.84 74.1784 212.84C73.6931 212.84 73.2824 212.947 72.9464 213.162C72.6104 213.367 72.3631 213.703 72.2044 214.17L71.2944 213.61C71.4811 213.087 71.8264 212.667 72.3304 212.35C72.8344 212.023 73.4598 211.86 74.2064 211.86C74.7104 211.86 75.1678 211.949 75.5784 212.126C75.9891 212.294 76.3111 212.555 76.5444 212.91C76.7871 213.255 76.9084 213.703 76.9084 214.254V217.642C76.9084 217.978 77.0858 218.146 77.4404 218.146C77.6178 218.146 77.7904 218.123 77.9584 218.076L77.9024 218.958C77.7158 219.051 77.4731 219.098 77.1744 219.098C76.9038 219.098 76.6611 219.047 76.4464 218.944C76.2318 218.841 76.0638 218.687 75.9424 218.482C75.8211 218.267 75.7604 218.001 75.7604 217.684V217.544L76.0404 217.586C75.9284 217.95 75.7371 218.249 75.4664 218.482C75.1958 218.706 74.8924 218.874 74.5564 218.986C74.2204 219.089 73.8891 219.14 73.5624 219.14C73.1518 219.14 72.7691 219.07 72.4144 218.93C72.0598 218.79 71.7751 218.58 71.5604 218.3C71.3551 218.011 71.2524 217.656 71.2524 217.236C71.2524 216.713 71.4251 216.284 71.7704 215.948C72.1251 215.603 72.6151 215.369 73.2404 215.248L76.0124 214.702V215.626L73.7584 216.088C73.3011 216.181 72.9604 216.312 72.7364 216.48C72.5124 216.648 72.4004 216.881 72.4004 217.18C72.4004 217.469 72.5124 217.707 72.7364 217.894C72.9698 218.071 73.2964 218.16 73.7164 218.16C73.9871 218.16 74.2438 218.127 74.4864 218.062C74.7384 217.987 74.9624 217.88 75.1584 217.74C75.3544 217.591 75.5084 217.409 75.6204 217.194C75.7324 216.97 75.7884 216.709 75.7884 216.41V214.478ZM85.452 210.012V217.068C85.452 217.413 85.55 217.67 85.746 217.838C85.942 218.006 86.194 218.09 86.502 218.09C86.7727 218.09 87.006 218.043 87.202 217.95C87.398 217.857 87.5754 217.731 87.734 217.572L88.126 218.51C87.9114 218.706 87.6547 218.86 87.356 218.972C87.0667 219.084 86.7307 219.14 86.348 219.14C85.9934 219.14 85.662 219.079 85.354 218.958C85.046 218.827 84.7987 218.627 84.612 218.356C84.4347 218.076 84.3414 217.712 84.332 217.264V210.32L85.452 210.012ZM88 212V212.966H82.932V212H88ZM93.7533 214.478C93.7533 213.955 93.6133 213.554 93.3333 213.274C93.0533 212.985 92.6566 212.84 92.1433 212.84C91.6579 212.84 91.2473 212.947 90.9113 213.162C90.5753 213.367 90.3279 213.703 90.1693 214.17L89.2593 213.61C89.4459 213.087 89.7913 212.667 90.2953 212.35C90.7993 212.023 91.4246 211.86 92.1713 211.86C92.6753 211.86 93.1326 211.949 93.5433 212.126C93.9539 212.294 94.2759 212.555 94.5093 212.91C94.7519 213.255 94.8733 213.703 94.8733 214.254V217.642C94.8733 217.978 95.0506 218.146 95.4053 218.146C95.5826 218.146 95.7553 218.123 95.9233 218.076L95.8673 218.958C95.6806 219.051 95.4379 219.098 95.1393 219.098C94.8686 219.098 94.6259 219.047 94.4113 218.944C94.1966 218.841 94.0286 218.687 93.9073 218.482C93.7859 218.267 93.7253 218.001 93.7253 217.684V217.544L94.0053 217.586C93.8933 217.95 93.7019 218.249 93.4313 218.482C93.1606 218.706 92.8573 218.874 92.5213 218.986C92.1853 219.089 91.8539 219.14 91.5273 219.14C91.1166 219.14 90.7339 219.07 90.3793 218.93C90.0246 218.79 89.7399 218.58 89.5253 218.3C89.3199 218.011 89.2173 217.656 89.2173 217.236C89.2173 216.713 89.3899 216.284 89.7353 215.948C90.0899 215.603 90.5799 215.369 91.2053 215.248L93.9773 214.702V215.626L91.7233 216.088C91.2659 216.181 90.9253 216.312 90.7013 216.48C90.4773 216.648 90.3653 216.881 90.3653 217.18C90.3653 217.469 90.4773 217.707 90.7013 217.894C90.9346 218.071 91.2613 218.16 91.6813 218.16C91.9519 218.16 92.2086 218.127 92.4513 218.062C92.7033 217.987 92.9273 217.88 93.1233 217.74C93.3193 217.591 93.4733 217.409 93.5853 217.194C93.6973 216.97 93.7533 216.709 93.7533 216.41V214.478ZM101.025 219.14C100.633 219.14 100.269 219.07 99.933 218.93C99.597 218.79 99.3076 218.594 99.065 218.342C98.8223 218.09 98.6403 217.805 98.519 217.488L98.673 217.292L98.575 219H97.595V208.78H98.715V213.582L98.575 213.372C98.7616 212.933 99.0743 212.574 99.513 212.294C99.961 212.005 100.47 211.86 101.039 211.86C101.618 211.86 102.15 212.005 102.635 212.294C103.12 212.583 103.508 212.999 103.797 213.54C104.086 214.081 104.231 214.735 104.231 215.5C104.231 216.256 104.082 216.909 103.783 217.46C103.494 218.001 103.106 218.417 102.621 218.706C102.136 218.995 101.604 219.14 101.025 219.14ZM100.913 218.16C101.604 218.16 102.14 217.917 102.523 217.432C102.915 216.947 103.111 216.303 103.111 215.5C103.111 214.697 102.92 214.053 102.537 213.568C102.154 213.083 101.618 212.84 100.927 212.84C100.488 212.84 100.101 212.952 99.765 213.176C99.4383 213.4 99.1816 213.713 98.995 214.114C98.8083 214.515 98.715 214.987 98.715 215.528C98.715 216.06 98.8036 216.527 98.981 216.928C99.1676 217.32 99.4243 217.623 99.751 217.838C100.087 218.053 100.474 218.16 100.913 218.16ZM106.659 217.32C106.883 217.32 107.07 217.381 107.219 217.502C107.378 217.614 107.499 217.773 107.583 217.978C107.667 218.174 107.709 218.407 107.709 218.678C107.709 218.986 107.653 219.289 107.541 219.588C107.438 219.887 107.275 220.162 107.051 220.414C106.827 220.666 106.538 220.876 106.183 221.044L105.595 220.498C105.847 220.414 106.066 220.297 106.253 220.148C106.449 219.999 106.608 219.831 106.729 219.644C106.85 219.457 106.93 219.266 106.967 219.07L106.911 219.042C106.874 219.07 106.827 219.093 106.771 219.112C106.715 219.131 106.631 219.14 106.519 219.14C106.407 219.14 106.29 219.107 106.169 219.042C106.057 218.977 105.959 218.883 105.875 218.762C105.791 218.631 105.749 218.463 105.749 218.258C105.749 218.09 105.791 217.936 105.875 217.796C105.959 217.647 106.066 217.53 106.197 217.446C106.337 217.362 106.491 217.32 106.659 217.32ZM117.487 211.86C117.972 211.86 118.397 211.935 118.761 212.084C119.134 212.233 119.456 212.448 119.727 212.728C119.998 213.008 120.217 213.339 120.385 213.722L119.321 214.226C119.172 213.778 118.943 213.437 118.635 213.204C118.336 212.961 117.944 212.84 117.459 212.84C116.992 212.84 116.591 212.947 116.255 213.162C115.919 213.367 115.662 213.671 115.485 214.072C115.308 214.464 115.219 214.94 115.219 215.5C115.219 216.051 115.308 216.527 115.485 216.928C115.662 217.329 115.919 217.637 116.255 217.852C116.591 218.057 116.992 218.16 117.459 218.16C117.823 218.16 118.136 218.104 118.397 217.992C118.668 217.88 118.887 217.717 119.055 217.502C119.232 217.287 119.354 217.026 119.419 216.718L120.455 217.082C120.296 217.511 120.077 217.88 119.797 218.188C119.526 218.496 119.195 218.734 118.803 218.902C118.42 219.061 117.982 219.14 117.487 219.14C116.834 219.14 116.25 218.995 115.737 218.706C115.224 218.417 114.822 218.001 114.533 217.46C114.244 216.909 114.099 216.256 114.099 215.5C114.099 214.744 114.244 214.095 114.533 213.554C114.822 213.003 115.224 212.583 115.737 212.294C116.25 212.005 116.834 211.86 117.487 211.86ZM123.487 208.78V217.222C123.487 217.577 123.552 217.824 123.683 217.964C123.814 218.095 124.024 218.16 124.313 218.16C124.5 218.16 124.654 218.146 124.775 218.118C124.896 218.09 125.06 218.039 125.265 217.964L125.083 218.944C124.934 219.009 124.77 219.056 124.593 219.084C124.416 219.121 124.234 219.14 124.047 219.14C123.478 219.14 123.053 218.986 122.773 218.678C122.502 218.37 122.367 217.899 122.367 217.264V208.78H123.487ZM127.262 210.656C127.01 210.656 126.805 210.581 126.646 210.432C126.497 210.273 126.422 210.068 126.422 209.816C126.422 209.564 126.497 209.363 126.646 209.214C126.805 209.055 127.01 208.976 127.262 208.976C127.514 208.976 127.715 209.055 127.864 209.214C128.023 209.363 128.102 209.564 128.102 209.816C128.102 210.068 128.023 210.273 127.864 210.432C127.715 210.581 127.514 210.656 127.262 210.656ZM127.822 212V219H126.702V212H127.822ZM133.319 211.86C133.804 211.86 134.229 211.935 134.593 212.084C134.966 212.233 135.288 212.448 135.559 212.728C135.83 213.008 136.049 213.339 136.217 213.722L135.153 214.226C135.004 213.778 134.775 213.437 134.467 213.204C134.168 212.961 133.776 212.84 133.291 212.84C132.824 212.84 132.423 212.947 132.087 213.162C131.751 213.367 131.494 213.671 131.317 214.072C131.14 214.464 131.051 214.94 131.051 215.5C131.051 216.051 131.14 216.527 131.317 216.928C131.494 217.329 131.751 217.637 132.087 217.852C132.423 218.057 132.824 218.16 133.291 218.16C133.655 218.16 133.968 218.104 134.229 217.992C134.5 217.88 134.719 217.717 134.887 217.502C135.064 217.287 135.186 217.026 135.251 216.718L136.287 217.082C136.128 217.511 135.909 217.88 135.629 218.188C135.358 218.496 135.027 218.734 134.635 218.902C134.252 219.061 133.814 219.14 133.319 219.14C132.666 219.14 132.082 218.995 131.569 218.706C131.056 218.417 130.654 218.001 130.365 217.46C130.076 216.909 129.931 216.256 129.931 215.5C129.931 214.744 130.076 214.095 130.365 213.554C130.654 213.003 131.056 212.583 131.569 212.294C132.082 212.005 132.666 211.86 133.319 211.86ZM144.401 212L141.377 215.024L141.111 215.29L138.815 217.586V216.186L142.987 212H144.401ZM139.375 208.78V219H138.255V208.78H139.375ZM141.475 214.45L144.569 219H143.211L140.537 215.08L141.475 214.45ZM153.554 211.86C154.216 211.86 154.8 212.005 155.304 212.294C155.817 212.583 156.218 213.003 156.508 213.554C156.797 214.095 156.942 214.744 156.942 215.5C156.942 216.256 156.797 216.909 156.508 217.46C156.218 218.001 155.817 218.417 155.304 218.706C154.8 218.995 154.216 219.14 153.554 219.14C152.9 219.14 152.317 218.995 151.804 218.706C151.29 218.417 150.889 218.001 150.6 217.46C150.31 216.909 150.166 216.256 150.166 215.5C150.166 214.744 150.31 214.095 150.6 213.554C150.889 213.003 151.29 212.583 151.804 212.294C152.317 212.005 152.9 211.86 153.554 211.86ZM153.554 212.826C153.078 212.826 152.672 212.933 152.336 213.148C152 213.363 151.738 213.671 151.552 214.072C151.374 214.464 151.286 214.94 151.286 215.5C151.286 216.051 151.374 216.527 151.552 216.928C151.738 217.329 152 217.637 152.336 217.852C152.672 218.067 153.078 218.174 153.554 218.174C154.03 218.174 154.436 218.067 154.772 217.852C155.108 217.637 155.364 217.329 155.542 216.928C155.728 216.527 155.822 216.051 155.822 215.5C155.822 214.94 155.728 214.464 155.542 214.072C155.364 213.671 155.108 213.363 154.772 213.148C154.436 212.933 154.03 212.826 153.554 212.826ZM159.05 219V212H160.03L160.128 213.568L159.946 213.414C160.095 213.041 160.296 212.742 160.548 212.518C160.8 212.285 161.089 212.117 161.416 212.014C161.752 211.911 162.097 211.86 162.452 211.86C162.956 211.86 163.413 211.958 163.824 212.154C164.235 212.341 164.561 212.63 164.804 213.022C165.056 213.414 165.182 213.913 165.182 214.52V219H164.062V214.912C164.062 214.137 163.894 213.601 163.558 213.302C163.231 212.994 162.825 212.84 162.34 212.84C162.004 212.84 161.668 212.919 161.332 213.078C160.996 213.237 160.716 213.493 160.492 213.848C160.277 214.203 160.17 214.679 160.17 215.276V219H159.05ZM176.578 214.478C176.578 213.955 176.438 213.554 176.158 213.274C175.878 212.985 175.481 212.84 174.968 212.84C174.482 212.84 174.072 212.947 173.736 213.162C173.4 213.367 173.152 213.703 172.994 214.17L172.084 213.61C172.27 213.087 172.616 212.667 173.12 212.35C173.624 212.023 174.249 211.86 174.996 211.86C175.5 211.86 175.957 211.949 176.368 212.126C176.778 212.294 177.1 212.555 177.334 212.91C177.576 213.255 177.698 213.703 177.698 214.254V217.642C177.698 217.978 177.875 218.146 178.23 218.146C178.407 218.146 178.58 218.123 178.748 218.076L178.692 218.958C178.505 219.051 178.262 219.098 177.964 219.098C177.693 219.098 177.45 219.047 177.236 218.944C177.021 218.841 176.853 218.687 176.732 218.482C176.61 218.267 176.55 218.001 176.55 217.684V217.544L176.83 217.586C176.718 217.95 176.526 218.249 176.256 218.482C175.985 218.706 175.682 218.874 175.346 218.986C175.01 219.089 174.678 219.14 174.352 219.14C173.941 219.14 173.558 219.07 173.204 218.93C172.849 218.79 172.564 218.58 172.35 218.3C172.144 218.011 172.042 217.656 172.042 217.236C172.042 216.713 172.214 216.284 172.56 215.948C172.914 215.603 173.404 215.369 174.03 215.248L176.802 214.702V215.626L174.548 216.088C174.09 216.181 173.75 216.312 173.526 216.48C173.302 216.648 173.19 216.881 173.19 217.18C173.19 217.469 173.302 217.707 173.526 217.894C173.759 218.071 174.086 218.16 174.506 218.16C174.776 218.16 175.033 218.127 175.276 218.062C175.528 217.987 175.752 217.88 175.948 217.74C176.144 217.591 176.298 217.409 176.41 217.194C176.522 216.97 176.578 216.709 176.578 216.41V214.478ZM180.419 219V212H181.399L181.497 213.568L181.315 213.414C181.465 213.041 181.665 212.742 181.917 212.518C182.169 212.285 182.459 212.117 182.785 212.014C183.121 211.911 183.467 211.86 183.821 211.86C184.325 211.86 184.783 211.958 185.193 212.154C185.604 212.341 185.931 212.63 186.173 213.022C186.425 213.414 186.551 213.913 186.551 214.52V219H185.431V214.912C185.431 214.137 185.263 213.601 184.927 213.302C184.601 212.994 184.195 212.84 183.709 212.84C183.373 212.84 183.037 212.919 182.701 213.078C182.365 213.237 182.085 213.493 181.861 213.848C181.647 214.203 181.539 214.679 181.539 215.276V219H180.419ZM194.65 212L191.36 220.176C191.182 220.633 190.986 220.993 190.772 221.254C190.566 221.525 190.333 221.716 190.072 221.828C189.82 221.949 189.526 222.01 189.19 222.01C188.872 222.01 188.578 221.963 188.308 221.87C188.046 221.786 187.813 221.669 187.608 221.52L187.916 220.54C188.102 220.708 188.298 220.829 188.504 220.904C188.718 220.988 188.928 221.03 189.134 221.03C189.376 221.03 189.605 220.955 189.82 220.806C190.034 220.657 190.23 220.353 190.408 219.896L190.772 218.986L190.072 217.32L187.846 212H189.12L190.87 216.564L191.304 217.81L191.808 216.424L193.446 212H194.65ZM203.429 211.86C204.091 211.86 204.675 212.005 205.179 212.294C205.692 212.583 206.093 213.003 206.383 213.554C206.672 214.095 206.817 214.744 206.817 215.5C206.817 216.256 206.672 216.909 206.383 217.46C206.093 218.001 205.692 218.417 205.179 218.706C204.675 218.995 204.091 219.14 203.429 219.14C202.775 219.14 202.192 218.995 201.679 218.706C201.165 218.417 200.764 218.001 200.475 217.46C200.185 216.909 200.041 216.256 200.041 215.5C200.041 214.744 200.185 214.095 200.475 213.554C200.764 213.003 201.165 212.583 201.679 212.294C202.192 212.005 202.775 211.86 203.429 211.86ZM203.429 212.826C202.953 212.826 202.547 212.933 202.211 213.148C201.875 213.363 201.613 213.671 201.427 214.072C201.249 214.464 201.161 214.94 201.161 215.5C201.161 216.051 201.249 216.527 201.427 216.928C201.613 217.329 201.875 217.637 202.211 217.852C202.547 218.067 202.953 218.174 203.429 218.174C203.905 218.174 204.311 218.067 204.647 217.852C204.983 217.637 205.239 217.329 205.417 216.928C205.603 216.527 205.697 216.051 205.697 215.5C205.697 214.94 205.603 214.464 205.417 214.072C205.239 213.671 204.983 213.363 204.647 213.148C204.311 212.933 203.905 212.826 203.429 212.826ZM208.925 221.94V212H209.905L210.003 213.708L209.849 213.512C209.97 213.185 210.152 212.901 210.395 212.658C210.638 212.406 210.932 212.21 211.277 212.07C211.622 211.93 211.996 211.86 212.397 211.86C212.966 211.86 213.489 212.005 213.965 212.294C214.45 212.583 214.838 212.999 215.127 213.54C215.416 214.081 215.561 214.735 215.561 215.5C215.561 216.256 215.412 216.909 215.113 217.46C214.824 218.001 214.436 218.417 213.951 218.706C213.466 218.995 212.934 219.14 212.355 219.14C211.776 219.14 211.268 219 210.829 218.72C210.4 218.431 210.092 218.067 209.905 217.628L210.045 217.418V221.94H208.925ZM212.243 218.16C212.934 218.16 213.47 217.917 213.853 217.432C214.245 216.947 214.441 216.303 214.441 215.5C214.441 214.697 214.25 214.053 213.867 213.568C213.494 213.083 212.966 212.84 212.285 212.84C211.837 212.84 211.445 212.952 211.109 213.176C210.773 213.391 210.512 213.699 210.325 214.1C210.138 214.492 210.045 214.959 210.045 215.5C210.045 216.032 210.134 216.499 210.311 216.9C210.498 217.301 210.754 217.614 211.081 217.838C211.417 218.053 211.804 218.16 212.243 218.16ZM219.231 210.012V217.068C219.231 217.413 219.329 217.67 219.525 217.838C219.721 218.006 219.973 218.09 220.281 218.09C220.552 218.09 220.785 218.043 220.981 217.95C221.177 217.857 221.355 217.731 221.513 217.572L221.905 218.51C221.691 218.706 221.434 218.86 221.135 218.972C220.846 219.084 220.51 219.14 220.127 219.14C219.773 219.14 219.441 219.079 219.133 218.958C218.825 218.827 218.578 218.627 218.391 218.356C218.214 218.076 218.121 217.712 218.111 217.264V210.32L219.231 210.012ZM221.779 212V212.966H216.711V212H221.779ZM224.005 210.656C223.753 210.656 223.547 210.581 223.389 210.432C223.239 210.273 223.165 210.068 223.165 209.816C223.165 209.564 223.239 209.363 223.389 209.214C223.547 209.055 223.753 208.976 224.005 208.976C224.257 208.976 224.457 209.055 224.607 209.214C224.765 209.363 224.845 209.564 224.845 209.816C224.845 210.068 224.765 210.273 224.607 210.432C224.457 210.581 224.257 210.656 224.005 210.656ZM224.565 212V219H223.445V212H224.565ZM230.061 211.86C230.724 211.86 231.307 212.005 231.811 212.294C232.325 212.583 232.726 213.003 233.015 213.554C233.305 214.095 233.449 214.744 233.449 215.5C233.449 216.256 233.305 216.909 233.015 217.46C232.726 218.001 232.325 218.417 231.811 218.706C231.307 218.995 230.724 219.14 230.061 219.14C229.408 219.14 228.825 218.995 228.311 218.706C227.798 218.417 227.397 218.001 227.107 217.46C226.818 216.909 226.673 216.256 226.673 215.5C226.673 214.744 226.818 214.095 227.107 213.554C227.397 213.003 227.798 212.583 228.311 212.294C228.825 212.005 229.408 211.86 230.061 211.86ZM230.061 212.826C229.585 212.826 229.179 212.933 228.843 213.148C228.507 213.363 228.246 213.671 228.059 214.072C227.882 214.464 227.793 214.94 227.793 215.5C227.793 216.051 227.882 216.527 228.059 216.928C228.246 217.329 228.507 217.637 228.843 217.852C229.179 218.067 229.585 218.174 230.061 218.174C230.537 218.174 230.943 218.067 231.279 217.852C231.615 217.637 231.872 217.329 232.049 216.928C232.236 216.527 232.329 216.051 232.329 215.5C232.329 214.94 232.236 214.464 232.049 214.072C231.872 213.671 231.615 213.363 231.279 213.148C230.943 212.933 230.537 212.826 230.061 212.826ZM235.558 219V212H236.538L236.636 213.568L236.454 213.414C236.603 213.041 236.804 212.742 237.056 212.518C237.308 212.285 237.597 212.117 237.924 212.014C238.26 211.911 238.605 211.86 238.96 211.86C239.464 211.86 239.921 211.958 240.332 212.154C240.743 212.341 241.069 212.63 241.312 213.022C241.564 213.414 241.69 213.913 241.69 214.52V219H240.57V214.912C240.57 214.137 240.402 213.601 240.066 213.302C239.739 212.994 239.333 212.84 238.848 212.84C238.512 212.84 238.176 212.919 237.84 213.078C237.504 213.237 237.224 213.493 237 213.848C236.785 214.203 236.678 214.679 236.678 215.276V219H235.558ZM251.895 211.86C252.558 211.86 253.141 212.005 253.645 212.294C254.159 212.583 254.56 213.003 254.849 213.554C255.139 214.095 255.283 214.744 255.283 215.5C255.283 216.256 255.139 216.909 254.849 217.46C254.56 218.001 254.159 218.417 253.645 218.706C253.141 218.995 252.558 219.14 251.895 219.14C251.242 219.14 250.659 218.995 250.145 218.706C249.632 218.417 249.231 218.001 248.941 217.46C248.652 216.909 248.507 216.256 248.507 215.5C248.507 214.744 248.652 214.095 248.941 213.554C249.231 213.003 249.632 212.583 250.145 212.294C250.659 212.005 251.242 211.86 251.895 211.86ZM251.895 212.826C251.419 212.826 251.013 212.933 250.677 213.148C250.341 213.363 250.08 213.671 249.893 214.072C249.716 214.464 249.627 214.94 249.627 215.5C249.627 216.051 249.716 216.527 249.893 216.928C250.08 217.329 250.341 217.637 250.677 217.852C251.013 218.067 251.419 218.174 251.895 218.174C252.371 218.174 252.777 218.067 253.113 217.852C253.449 217.637 253.706 217.329 253.883 216.928C254.07 216.527 254.163 216.051 254.163 215.5C254.163 214.94 254.07 214.464 253.883 214.072C253.706 213.671 253.449 213.363 253.113 213.148C252.777 212.933 252.371 212.826 251.895 212.826ZM257.392 219V212H258.372L258.47 213.568L258.288 213.414C258.437 213.041 258.638 212.742 258.89 212.518C259.142 212.285 259.431 212.117 259.758 212.014C260.094 211.911 260.439 211.86 260.794 211.86C261.298 211.86 261.755 211.958 262.166 212.154C262.577 212.341 262.903 212.63 263.146 213.022C263.398 213.414 263.524 213.913 263.524 214.52V219H262.404V214.912C262.404 214.137 262.236 213.601 261.9 213.302C261.573 212.994 261.167 212.84 260.682 212.84C260.346 212.84 260.01 212.919 259.674 213.078C259.338 213.237 259.058 213.493 258.834 213.848C258.619 214.203 258.512 214.679 258.512 215.276V219H257.392ZM276.23 212L272.94 220.176C272.762 220.633 272.566 220.993 272.352 221.254C272.146 221.525 271.913 221.716 271.652 221.828C271.4 221.949 271.106 222.01 270.77 222.01C270.452 222.01 270.158 221.963 269.888 221.87C269.626 221.786 269.393 221.669 269.188 221.52L269.496 220.54C269.682 220.708 269.878 220.829 270.084 220.904C270.298 220.988 270.508 221.03 270.714 221.03C270.956 221.03 271.185 220.955 271.4 220.806C271.614 220.657 271.81 220.353 271.988 219.896L272.352 218.986L271.652 217.32L269.426 212H270.7L272.45 216.564L272.884 217.81L273.388 216.424L275.026 212H276.23ZM280.593 211.86C281.255 211.86 281.839 212.005 282.343 212.294C282.856 212.583 283.257 213.003 283.547 213.554C283.836 214.095 283.981 214.744 283.981 215.5C283.981 216.256 283.836 216.909 283.547 217.46C283.257 218.001 282.856 218.417 282.343 218.706C281.839 218.995 281.255 219.14 280.593 219.14C279.939 219.14 279.356 218.995 278.843 218.706C278.329 218.417 277.928 218.001 277.639 217.46C277.349 216.909 277.205 216.256 277.205 215.5C277.205 214.744 277.349 214.095 277.639 213.554C277.928 213.003 278.329 212.583 278.843 212.294C279.356 212.005 279.939 211.86 280.593 211.86ZM280.593 212.826C280.117 212.826 279.711 212.933 279.375 213.148C279.039 213.363 278.777 213.671 278.591 214.072C278.413 214.464 278.325 214.94 278.325 215.5C278.325 216.051 278.413 216.527 278.591 216.928C278.777 217.329 279.039 217.637 279.375 217.852C279.711 218.067 280.117 218.174 280.593 218.174C281.069 218.174 281.475 218.067 281.811 217.852C282.147 217.637 282.403 217.329 282.581 216.928C282.767 216.527 282.861 216.051 282.861 215.5C282.861 214.94 282.767 214.464 282.581 214.072C282.403 213.671 282.147 213.363 281.811 213.148C281.475 212.933 281.069 212.826 280.593 212.826ZM288.623 219.14C288.175 219.14 287.75 219.056 287.349 218.888C286.957 218.72 286.635 218.449 286.383 218.076C286.14 217.693 286.019 217.199 286.019 216.592V212H287.139V216.298C287.139 217.007 287.293 217.497 287.601 217.768C287.909 218.029 288.343 218.16 288.903 218.16C289.164 218.16 289.421 218.118 289.673 218.034C289.925 217.941 290.149 217.801 290.345 217.614C290.55 217.418 290.709 217.171 290.821 216.872C290.942 216.573 291.003 216.219 291.003 215.808V212H292.123V219H291.143L291.073 217.936C290.83 218.356 290.499 218.664 290.079 218.86C289.668 219.047 289.183 219.14 288.623 219.14ZM294.73 219V212H295.64L295.794 213.148C295.99 212.719 296.274 212.397 296.648 212.182C297.03 211.967 297.492 211.86 298.034 211.86C298.155 211.86 298.286 211.869 298.426 211.888C298.575 211.907 298.701 211.944 298.804 212L298.608 213.022C298.505 212.985 298.393 212.957 298.272 212.938C298.15 212.919 297.978 212.91 297.754 212.91C297.464 212.91 297.17 212.994 296.872 213.162C296.582 213.33 296.34 213.587 296.144 213.932C295.948 214.268 295.85 214.697 295.85 215.22V219H294.73ZM308.318 219.14C307.926 219.14 307.562 219.07 307.226 218.93C306.89 218.79 306.601 218.594 306.358 218.342C306.115 218.09 305.933 217.805 305.812 217.488L305.966 217.292L305.868 219H304.888V208.78H306.008V213.582L305.868 213.372C306.055 212.933 306.367 212.574 306.806 212.294C307.254 212.005 307.763 211.86 308.332 211.86C308.911 211.86 309.443 212.005 309.928 212.294C310.413 212.583 310.801 212.999 311.09 213.54C311.379 214.081 311.524 214.735 311.524 215.5C311.524 216.256 311.375 216.909 311.076 217.46C310.787 218.001 310.399 218.417 309.914 218.706C309.429 218.995 308.897 219.14 308.318 219.14ZM308.206 218.16C308.897 218.16 309.433 217.917 309.816 217.432C310.208 216.947 310.404 216.303 310.404 215.5C310.404 214.697 310.213 214.053 309.83 213.568C309.447 213.083 308.911 212.84 308.22 212.84C307.781 212.84 307.394 212.952 307.058 213.176C306.731 213.4 306.475 213.713 306.288 214.114C306.101 214.515 306.008 214.987 306.008 215.528C306.008 216.06 306.097 216.527 306.274 216.928C306.461 217.32 306.717 217.623 307.044 217.838C307.38 218.053 307.767 218.16 308.206 218.16ZM316.563 211.86C317.226 211.86 317.809 212.005 318.313 212.294C318.827 212.583 319.228 213.003 319.517 213.554C319.807 214.095 319.951 214.744 319.951 215.5C319.951 216.256 319.807 216.909 319.517 217.46C319.228 218.001 318.827 218.417 318.313 218.706C317.809 218.995 317.226 219.14 316.563 219.14C315.91 219.14 315.327 218.995 314.813 218.706C314.3 218.417 313.899 218.001 313.609 217.46C313.32 216.909 313.175 216.256 313.175 215.5C313.175 214.744 313.32 214.095 313.609 213.554C313.899 213.003 314.3 212.583 314.813 212.294C315.327 212.005 315.91 211.86 316.563 211.86ZM316.563 212.826C316.087 212.826 315.681 212.933 315.345 213.148C315.009 213.363 314.748 213.671 314.561 214.072C314.384 214.464 314.295 214.94 314.295 215.5C314.295 216.051 314.384 216.527 314.561 216.928C314.748 217.329 315.009 217.637 315.345 217.852C315.681 218.067 316.087 218.174 316.563 218.174C317.039 218.174 317.445 218.067 317.781 217.852C318.117 217.637 318.374 217.329 318.551 216.928C318.738 216.527 318.831 216.051 318.831 215.5C318.831 214.94 318.738 214.464 318.551 214.072C318.374 213.671 318.117 213.363 317.781 213.148C317.445 212.933 317.039 212.826 316.563 212.826ZM323.589 210.012V217.068C323.589 217.413 323.687 217.67 323.883 217.838C324.079 218.006 324.331 218.09 324.639 218.09C324.909 218.09 325.143 218.043 325.339 217.95C325.535 217.857 325.712 217.731 325.871 217.572L326.263 218.51C326.048 218.706 325.791 218.86 325.493 218.972C325.203 219.084 324.867 219.14 324.485 219.14C324.13 219.14 323.799 219.079 323.491 218.958C323.183 218.827 322.935 218.627 322.749 218.356C322.571 218.076 322.478 217.712 322.469 217.264V210.32L323.589 210.012ZM326.137 212V212.966H321.069V212H326.137ZM328.552 210.012V217.068C328.552 217.413 328.65 217.67 328.846 217.838C329.042 218.006 329.294 218.09 329.602 218.09C329.872 218.09 330.106 218.043 330.302 217.95C330.498 217.857 330.675 217.731 330.834 217.572L331.226 218.51C331.011 218.706 330.754 218.86 330.456 218.972C330.166 219.084 329.83 219.14 329.448 219.14C329.093 219.14 328.762 219.079 328.454 218.958C328.146 218.827 327.898 218.627 327.712 218.356C327.534 218.076 327.441 217.712 327.432 217.264V210.32L328.552 210.012ZM331.1 212V212.966H326.032V212H331.1ZM335.663 211.86C336.326 211.86 336.909 212.005 337.413 212.294C337.926 212.583 338.328 213.003 338.617 213.554C338.906 214.095 339.051 214.744 339.051 215.5C339.051 216.256 338.906 216.909 338.617 217.46C338.328 218.001 337.926 218.417 337.413 218.706C336.909 218.995 336.326 219.14 335.663 219.14C335.01 219.14 334.426 218.995 333.913 218.706C333.4 218.417 332.998 218.001 332.709 217.46C332.42 216.909 332.275 216.256 332.275 215.5C332.275 214.744 332.42 214.095 332.709 213.554C332.998 213.003 333.4 212.583 333.913 212.294C334.426 212.005 335.01 211.86 335.663 211.86ZM335.663 212.826C335.187 212.826 334.781 212.933 334.445 213.148C334.109 213.363 333.848 213.671 333.661 214.072C333.484 214.464 333.395 214.94 333.395 215.5C333.395 216.051 333.484 216.527 333.661 216.928C333.848 217.329 334.109 217.637 334.445 217.852C334.781 218.067 335.187 218.174 335.663 218.174C336.139 218.174 336.545 218.067 336.881 217.852C337.217 217.637 337.474 217.329 337.651 216.928C337.838 216.527 337.931 216.051 337.931 215.5C337.931 214.94 337.838 214.464 337.651 214.072C337.474 213.671 337.217 213.363 336.881 213.148C336.545 212.933 336.139 212.826 335.663 212.826ZM341.159 219V212H342.139L342.209 213.092C342.461 212.663 342.788 212.35 343.189 212.154C343.6 211.958 344.02 211.86 344.449 211.86C344.944 211.86 345.411 211.972 345.849 212.196C346.288 212.42 346.624 212.765 346.857 213.232C347.007 212.915 347.217 212.658 347.487 212.462C347.758 212.257 348.052 212.107 348.369 212.014C348.696 211.911 349.004 211.86 349.293 211.86C349.741 211.86 350.166 211.953 350.567 212.14C350.978 212.327 351.314 212.616 351.575 213.008C351.837 213.4 351.967 213.904 351.967 214.52V219H350.847V214.632C350.847 213.997 350.689 213.54 350.371 213.26C350.054 212.98 349.662 212.84 349.195 212.84C348.831 212.84 348.491 212.929 348.173 213.106C347.856 213.283 347.599 213.545 347.403 213.89C347.217 214.235 347.123 214.66 347.123 215.164V219H346.003V214.632C346.003 213.997 345.845 213.54 345.527 213.26C345.21 212.98 344.818 212.84 344.351 212.84C344.043 212.84 343.726 212.924 343.399 213.092C343.082 213.251 342.816 213.507 342.601 213.862C342.387 214.217 342.279 214.683 342.279 215.262V219H341.159ZM360.339 208.78V217.222C360.339 217.577 360.404 217.824 360.535 217.964C360.665 218.095 360.875 218.16 361.165 218.16C361.351 218.16 361.505 218.146 361.627 218.118C361.748 218.09 361.911 218.039 362.117 217.964L361.935 218.944C361.785 219.009 361.622 219.056 361.445 219.084C361.267 219.121 361.085 219.14 360.899 219.14C360.329 219.14 359.905 218.986 359.625 218.678C359.354 218.37 359.219 217.899 359.219 217.264V208.78H360.339ZM366.48 219.14C365.817 219.14 365.225 218.995 364.702 218.706C364.189 218.417 363.787 218.001 363.498 217.46C363.209 216.909 363.064 216.256 363.064 215.5C363.064 214.744 363.209 214.095 363.498 213.554C363.787 213.003 364.184 212.583 364.688 212.294C365.192 212.005 365.766 211.86 366.41 211.86C367.063 211.86 367.619 212 368.076 212.28C368.543 212.56 368.897 212.943 369.14 213.428C369.383 213.904 369.504 214.441 369.504 215.038C369.504 215.197 369.499 215.341 369.49 215.472C369.481 215.603 369.467 215.719 369.448 215.822H363.792V214.828H368.958L368.384 214.94C368.384 214.268 368.197 213.75 367.824 213.386C367.46 213.022 366.979 212.84 366.382 212.84C365.925 212.84 365.528 212.947 365.192 213.162C364.865 213.367 364.609 213.671 364.422 214.072C364.245 214.464 364.156 214.94 364.156 215.5C364.156 216.051 364.249 216.527 364.436 216.928C364.623 217.329 364.884 217.637 365.22 217.852C365.565 218.057 365.976 218.16 366.452 218.16C366.965 218.16 367.381 218.062 367.698 217.866C368.025 217.67 368.286 217.404 368.482 217.068L369.364 217.586C369.187 217.903 368.958 218.179 368.678 218.412C368.407 218.645 368.085 218.827 367.712 218.958C367.348 219.079 366.937 219.14 366.48 219.14ZM374.408 208.71C374.65 208.71 374.879 208.738 375.094 208.794C375.308 208.85 375.476 208.929 375.598 209.032L375.304 209.942C375.192 209.867 375.07 209.816 374.94 209.788C374.809 209.751 374.664 209.732 374.506 209.732C374.104 209.732 373.792 209.83 373.568 210.026C373.344 210.213 373.232 210.516 373.232 210.936V212V212.364V219H372.112V210.824C372.112 210.516 372.158 210.231 372.252 209.97C372.345 209.709 372.485 209.485 372.672 209.298C372.868 209.111 373.11 208.967 373.4 208.864C373.689 208.761 374.025 208.71 374.408 208.71ZM375.57 212V212.966H370.712V212H375.57ZM378.017 210.012V217.068C378.017 217.413 378.115 217.67 378.311 217.838C378.507 218.006 378.759 218.09 379.067 218.09C379.337 218.09 379.571 218.043 379.767 217.95C379.963 217.857 380.14 217.731 380.299 217.572L380.691 218.51C380.476 218.706 380.219 218.86 379.921 218.972C379.631 219.084 379.295 219.14 378.913 219.14C378.558 219.14 378.227 219.079 377.919 218.958C377.611 218.827 377.363 218.627 377.177 218.356C376.999 218.076 376.906 217.712 376.897 217.264V210.32L378.017 210.012ZM380.565 212V212.966H375.497V212H380.565Z" fill="black"/>
<path d="M85.32 180.8L80.64 189.06V194H77.88V189.06L73.2 180.8H76.14L78.26 184.76L79.26 186.82L80.28 184.76L82.4 180.8H85.32ZM89.6055 183.8C90.6188 183.8 91.5055 184.007 92.2655 184.42C93.0388 184.833 93.6388 185.427 94.0655 186.2C94.5055 186.973 94.7255 187.907 94.7255 189C94.7255 190.08 94.5055 191.013 94.0655 191.8C93.6388 192.573 93.0388 193.167 92.2655 193.58C91.5055 193.993 90.6188 194.2 89.6055 194.2C88.6055 194.2 87.7188 193.993 86.9455 193.58C86.1721 193.167 85.5655 192.573 85.1255 191.8C84.6988 191.013 84.4855 190.08 84.4855 189C84.4855 187.907 84.6988 186.973 85.1255 186.2C85.5655 185.427 86.1721 184.833 86.9455 184.42C87.7188 184.007 88.6055 183.8 89.6055 183.8ZM89.6055 185.84C89.0988 185.84 88.6655 185.96 88.3055 186.2C87.9588 186.427 87.6921 186.773 87.5055 187.24C87.3188 187.707 87.2255 188.293 87.2255 189C87.2255 189.707 87.3188 190.293 87.5055 190.76C87.6921 191.227 87.9588 191.58 88.3055 191.82C88.6655 192.047 89.0988 192.16 89.6055 192.16C90.0988 192.16 90.5188 192.047 90.8655 191.82C91.2255 191.58 91.4988 191.227 91.6855 190.76C91.8721 190.293 91.9655 189.707 91.9655 189C91.9655 188.293 91.8721 187.707 91.6855 187.24C91.4988 186.773 91.2255 186.427 90.8655 186.2C90.5188 185.96 90.0988 185.84 89.6055 185.84ZM100.498 194.2C99.8315 194.2 99.2315 194.08 98.6981 193.84C98.1648 193.6 97.7381 193.22 97.4181 192.7C97.1115 192.167 96.9581 191.48 96.9581 190.64V184H99.6981V189.98C99.6981 190.753 99.8581 191.293 100.178 191.6C100.498 191.893 100.958 192.04 101.558 192.04C101.838 192.04 102.111 191.993 102.378 191.9C102.645 191.793 102.878 191.633 103.078 191.42C103.291 191.207 103.458 190.933 103.578 190.6C103.698 190.253 103.758 189.847 103.758 189.38V184H106.498V194H104.058L103.958 192.26C103.625 192.927 103.165 193.42 102.578 193.74C102.005 194.047 101.311 194.2 100.498 194.2ZM109.381 194V184H111.761L111.941 185.96C112.208 185.267 112.595 184.733 113.101 184.36C113.621 183.987 114.268 183.8 115.041 183.8C115.268 183.8 115.475 183.82 115.661 183.86C115.848 183.9 116.001 183.953 116.121 184.02L115.801 186.32C115.668 186.267 115.501 186.227 115.301 186.2C115.115 186.173 114.868 186.16 114.561 186.16C114.161 186.16 113.775 186.26 113.401 186.46C113.028 186.647 112.721 186.94 112.481 187.34C112.241 187.727 112.121 188.22 112.121 188.82V194H109.381ZM136.031 184H138.951L135.751 194H132.591L130.411 187.2L128.311 194H125.151L121.951 184H124.871L126.871 191.66L129.091 184H131.811L134.051 191.66L136.031 184ZM144.938 183.8C145.951 183.8 146.838 184.007 147.598 184.42C148.371 184.833 148.971 185.427 149.398 186.2C149.838 186.973 150.058 187.907 150.058 189C150.058 190.08 149.838 191.013 149.398 191.8C148.971 192.573 148.371 193.167 147.598 193.58C146.838 193.993 145.951 194.2 144.938 194.2C143.938 194.2 143.051 193.993 142.278 193.58C141.504 193.167 140.898 192.573 140.458 191.8C140.031 191.013 139.818 190.08 139.818 189C139.818 187.907 140.031 186.973 140.458 186.2C140.898 185.427 141.504 184.833 142.278 184.42C143.051 184.007 143.938 183.8 144.938 183.8ZM144.938 185.84C144.431 185.84 143.998 185.96 143.638 186.2C143.291 186.427 143.024 186.773 142.838 187.24C142.651 187.707 142.558 188.293 142.558 189C142.558 189.707 142.651 190.293 142.838 190.76C143.024 191.227 143.291 191.58 143.638 191.82C143.998 192.047 144.431 192.16 144.938 192.16C145.431 192.16 145.851 192.047 146.198 191.82C146.558 191.58 146.831 191.227 147.018 190.76C147.204 190.293 147.298 189.707 147.298 189C147.298 188.293 147.204 187.707 147.018 187.24C146.831 186.773 146.558 186.427 146.198 186.2C145.851 185.96 145.431 185.84 144.938 185.84ZM152.35 194V184H154.73L154.91 185.96C155.177 185.267 155.563 184.733 156.07 184.36C156.59 183.987 157.237 183.8 158.01 183.8C158.237 183.8 158.443 183.82 158.63 183.86C158.817 183.9 158.97 183.953 159.09 184.02L158.77 186.32C158.637 186.267 158.47 186.227 158.27 186.2C158.083 186.173 157.837 186.16 157.53 186.16C157.13 186.16 156.743 186.26 156.37 186.46C155.997 186.647 155.69 186.94 155.45 187.34C155.21 187.727 155.09 188.22 155.09 188.82V194H152.35ZM170.968 184L166.348 188.82L165.808 189.08L162.808 192.3L162.768 189.38L167.848 184H170.968ZM163.528 179.62V194H160.788V179.62H163.528ZM166.728 187.18L171.208 194H168.108L164.848 188.78L166.728 187.18ZM176.682 194.2C175.669 194.2 174.742 194.02 173.902 193.66C173.076 193.3 172.402 192.793 171.882 192.14L173.462 190.54C173.782 191.02 174.209 191.413 174.742 191.72C175.276 192.027 175.909 192.18 176.642 192.18C177.162 192.18 177.576 192.107 177.882 191.96C178.202 191.8 178.362 191.553 178.362 191.22C178.362 191.007 178.289 190.827 178.142 190.68C177.996 190.52 177.702 190.393 177.262 190.3L175.502 189.94C174.342 189.7 173.516 189.34 173.022 188.86C172.542 188.367 172.302 187.733 172.302 186.96C172.302 186.413 172.462 185.9 172.782 185.42C173.116 184.94 173.609 184.553 174.262 184.26C174.916 183.953 175.729 183.8 176.702 183.8C177.702 183.8 178.569 183.96 179.302 184.28C180.049 184.587 180.636 185.047 181.062 185.66L179.422 187.26C179.129 186.793 178.742 186.44 178.262 186.2C177.796 185.947 177.302 185.82 176.782 185.82C176.409 185.82 176.089 185.86 175.822 185.94C175.556 186.02 175.356 186.133 175.222 186.28C175.089 186.413 175.022 186.587 175.022 186.8C175.022 187.013 175.116 187.2 175.302 187.36C175.489 187.507 175.829 187.633 176.322 187.74L178.362 188.16C179.349 188.36 180.056 188.7 180.482 189.18C180.909 189.647 181.122 190.213 181.122 190.88C181.122 191.52 180.949 192.093 180.602 192.6C180.269 193.093 179.769 193.487 179.102 193.78C178.449 194.06 177.642 194.2 176.682 194.2ZM183.307 198.2V184H185.767L185.947 187.18L185.607 186.82C185.727 186.233 185.947 185.713 186.267 185.26C186.601 184.807 187.021 184.453 187.527 184.2C188.034 183.933 188.601 183.8 189.227 183.8C190.041 183.8 190.767 184.007 191.407 184.42C192.047 184.833 192.547 185.427 192.907 186.2C193.281 186.96 193.467 187.887 193.467 188.98C193.467 190.073 193.281 191.013 192.907 191.8C192.534 192.573 192.021 193.167 191.367 193.58C190.727 193.993 189.994 194.2 189.167 194.2C188.287 194.2 187.554 193.953 186.967 193.46C186.394 192.967 186.001 192.347 185.787 191.6L186.047 191.18V198.2H183.307ZM188.367 192.1C189.101 192.1 189.674 191.84 190.087 191.32C190.514 190.787 190.727 190.013 190.727 189C190.727 187.987 190.521 187.22 190.107 186.7C189.707 186.167 189.141 185.9 188.407 185.9C187.941 185.9 187.527 186.027 187.167 186.28C186.821 186.52 186.547 186.873 186.347 187.34C186.147 187.793 186.047 188.347 186.047 189C186.047 189.64 186.141 190.193 186.327 190.66C186.514 191.127 186.781 191.487 187.127 191.74C187.487 191.98 187.901 192.1 188.367 192.1ZM201.488 187.62C201.488 187.047 201.321 186.6 200.988 186.28C200.668 185.96 200.241 185.8 199.708 185.8C199.214 185.8 198.781 185.927 198.408 186.18C198.034 186.433 197.761 186.853 197.588 187.44L195.248 186.72C195.474 185.84 195.968 185.133 196.728 184.6C197.501 184.067 198.534 183.8 199.828 183.8C200.708 183.8 201.474 183.94 202.128 184.22C202.781 184.487 203.288 184.893 203.648 185.44C204.021 185.987 204.208 186.673 204.208 187.5V191.56C204.208 192.067 204.448 192.32 204.928 192.32C205.154 192.32 205.368 192.287 205.568 192.22L205.408 193.92C205.061 194.093 204.628 194.18 204.108 194.18C203.641 194.18 203.221 194.1 202.848 193.94C202.474 193.78 202.181 193.54 201.968 193.22C201.754 192.887 201.648 192.473 201.648 191.98V191.9L202.128 191.82C202.048 192.327 201.828 192.76 201.468 193.12C201.108 193.467 200.668 193.733 200.148 193.92C199.641 194.107 199.114 194.2 198.568 194.2C197.888 194.2 197.301 194.1 196.808 193.9C196.314 193.687 195.934 193.38 195.668 192.98C195.401 192.58 195.268 192.087 195.268 191.5C195.268 190.753 195.508 190.147 195.988 189.68C196.468 189.2 197.154 188.873 198.048 188.7L201.808 187.94L201.788 189.64L199.388 190.12C198.934 190.213 198.588 190.34 198.348 190.5C198.121 190.647 198.008 190.893 198.008 191.24C198.008 191.573 198.128 191.827 198.368 192C198.621 192.173 198.921 192.26 199.268 192.26C199.548 192.26 199.821 192.227 200.088 192.16C200.354 192.093 200.594 191.987 200.808 191.84C201.021 191.693 201.188 191.493 201.308 191.24C201.428 190.987 201.488 190.68 201.488 190.32V187.62ZM211.773 183.8C212.666 183.8 213.42 183.933 214.033 184.2C214.66 184.453 215.16 184.807 215.533 185.26C215.92 185.7 216.193 186.193 216.353 186.74L213.793 187.66C213.66 187.06 213.433 186.607 213.113 186.3C212.793 185.993 212.36 185.84 211.813 185.84C211.306 185.84 210.873 185.96 210.513 186.2C210.153 186.427 209.88 186.78 209.693 187.26C209.506 187.727 209.413 188.313 209.413 189.02C209.413 189.727 209.506 190.313 209.693 190.78C209.893 191.247 210.173 191.593 210.533 191.82C210.906 192.047 211.34 192.16 211.833 192.16C212.233 192.16 212.573 192.093 212.853 191.96C213.133 191.813 213.36 191.607 213.533 191.34C213.72 191.073 213.846 190.753 213.913 190.38L216.393 191.18C216.246 191.78 215.973 192.307 215.573 192.76C215.173 193.213 214.66 193.567 214.033 193.82C213.406 194.073 212.68 194.2 211.853 194.2C210.826 194.2 209.92 193.993 209.133 193.58C208.346 193.167 207.74 192.573 207.313 191.8C206.886 191.027 206.673 190.093 206.673 189C206.673 187.907 206.886 186.973 207.313 186.2C207.74 185.427 208.34 184.833 209.113 184.42C209.886 184.007 210.773 183.8 211.773 183.8ZM223.162 194.2C222.109 194.2 221.189 193.993 220.402 193.58C219.629 193.167 219.029 192.573 218.602 191.8C218.175 191.027 217.962 190.093 217.962 189C217.962 187.907 218.175 186.973 218.602 186.2C219.029 185.427 219.622 184.833 220.382 184.42C221.155 184.007 222.035 183.8 223.022 183.8C224.035 183.8 224.895 184.007 225.602 184.42C226.309 184.82 226.849 185.373 227.222 186.08C227.595 186.773 227.782 187.567 227.782 188.46C227.782 188.727 227.775 188.98 227.762 189.22C227.749 189.46 227.729 189.673 227.702 189.86H219.722V187.96H226.502L225.182 188.44C225.182 187.6 224.989 186.953 224.602 186.5C224.229 186.047 223.695 185.82 223.002 185.82C222.495 185.82 222.055 185.94 221.682 186.18C221.322 186.42 221.049 186.78 220.862 187.26C220.675 187.727 220.582 188.32 220.582 189.04C220.582 189.747 220.682 190.333 220.882 190.8C221.095 191.253 221.389 191.593 221.762 191.82C222.149 192.047 222.609 192.16 223.142 192.16C223.729 192.16 224.202 192.047 224.562 191.82C224.922 191.593 225.202 191.28 225.402 190.88L227.582 191.72C227.369 192.24 227.042 192.687 226.602 193.06C226.175 193.433 225.662 193.72 225.062 193.92C224.475 194.107 223.842 194.2 223.162 194.2ZM237.597 182.56C237.024 182.56 236.597 182.44 236.317 182.2C236.037 181.947 235.897 181.58 235.897 181.1C235.897 180.607 236.037 180.24 236.317 180C236.597 179.747 237.024 179.62 237.597 179.62C238.171 179.62 238.597 179.747 238.877 180C239.157 180.24 239.297 180.607 239.297 181.1C239.297 181.58 239.157 181.947 238.877 182.2C238.597 182.44 238.171 182.56 237.597 182.56ZM238.957 184V194H236.217V184H238.957ZM245.862 194.2C244.849 194.2 243.922 194.02 243.082 193.66C242.255 193.3 241.582 192.793 241.062 192.14L242.642 190.54C242.962 191.02 243.389 191.413 243.922 191.72C244.455 192.027 245.089 192.18 245.822 192.18C246.342 192.18 246.755 192.107 247.062 191.96C247.382 191.8 247.542 191.553 247.542 191.22C247.542 191.007 247.469 190.827 247.322 190.68C247.175 190.52 246.882 190.393 246.442 190.3L244.682 189.94C243.522 189.7 242.695 189.34 242.202 188.86C241.722 188.367 241.482 187.733 241.482 186.96C241.482 186.413 241.642 185.9 241.962 185.42C242.295 184.94 242.789 184.553 243.442 184.26C244.095 183.953 244.909 183.8 245.882 183.8C246.882 183.8 247.749 183.96 248.482 184.28C249.229 184.587 249.815 185.047 250.242 185.66L248.602 187.26C248.309 186.793 247.922 186.44 247.442 186.2C246.975 185.947 246.482 185.82 245.962 185.82C245.589 185.82 245.269 185.86 245.002 185.94C244.735 186.02 244.535 186.133 244.402 186.28C244.269 186.413 244.202 186.587 244.202 186.8C244.202 187.013 244.295 187.2 244.482 187.36C244.669 187.507 245.009 187.633 245.502 187.74L247.542 188.16C248.529 188.36 249.235 188.7 249.662 189.18C250.089 189.647 250.302 190.213 250.302 190.88C250.302 191.52 250.129 192.093 249.782 192.6C249.449 193.093 248.949 193.487 248.282 193.78C247.629 194.06 246.822 194.2 245.862 194.2ZM263.24 194.2C262.187 194.2 261.267 193.993 260.48 193.58C259.707 193.167 259.107 192.573 258.68 191.8C258.253 191.027 258.04 190.093 258.04 189C258.04 187.907 258.253 186.973 258.68 186.2C259.107 185.427 259.7 184.833 260.46 184.42C261.233 184.007 262.113 183.8 263.1 183.8C264.113 183.8 264.973 184.007 265.68 184.42C266.387 184.82 266.927 185.373 267.3 186.08C267.673 186.773 267.86 187.567 267.86 188.46C267.86 188.727 267.853 188.98 267.84 189.22C267.827 189.46 267.807 189.673 267.78 189.86H259.8V187.96H266.58L265.26 188.44C265.26 187.6 265.067 186.953 264.68 186.5C264.307 186.047 263.773 185.82 263.08 185.82C262.573 185.82 262.133 185.94 261.76 186.18C261.4 186.42 261.127 186.78 260.94 187.26C260.753 187.727 260.66 188.32 260.66 189.04C260.66 189.747 260.76 190.333 260.96 190.8C261.173 191.253 261.467 191.593 261.84 191.82C262.227 192.047 262.687 192.16 263.22 192.16C263.807 192.16 264.28 192.047 264.64 191.82C265 191.593 265.28 191.28 265.48 190.88L267.66 191.72C267.447 192.24 267.12 192.687 266.68 193.06C266.253 193.433 265.74 193.72 265.14 193.92C264.553 194.107 263.92 194.2 263.24 194.2ZM270.182 194V184H272.642L272.742 185.8C273.076 185.133 273.529 184.633 274.102 184.3C274.689 183.967 275.336 183.8 276.042 183.8C276.762 183.8 277.409 183.967 277.982 184.3C278.569 184.633 279.009 185.127 279.302 185.78C279.516 185.34 279.802 184.973 280.162 184.68C280.522 184.387 280.922 184.167 281.362 184.02C281.802 183.873 282.249 183.8 282.702 183.8C283.356 183.8 283.949 183.933 284.482 184.2C285.029 184.467 285.462 184.867 285.782 185.4C286.102 185.933 286.262 186.613 286.262 187.44V194H283.522V187.98C283.522 187.247 283.362 186.727 283.042 186.42C282.722 186.113 282.309 185.96 281.802 185.96C281.402 185.96 281.029 186.06 280.682 186.26C280.349 186.46 280.082 186.76 279.882 187.16C279.696 187.547 279.602 188.033 279.602 188.62V194H276.862V187.98C276.862 187.247 276.696 186.727 276.362 186.42C276.042 186.113 275.629 185.96 275.122 185.96C274.776 185.96 274.429 186.053 274.082 186.24C273.749 186.427 273.469 186.72 273.242 187.12C273.029 187.52 272.922 188.047 272.922 188.7V194H270.182ZM289.088 198.2V184H291.548L291.728 187.18L291.388 186.82C291.508 186.233 291.728 185.713 292.048 185.26C292.382 184.807 292.802 184.453 293.308 184.2C293.815 183.933 294.382 183.8 295.008 183.8C295.822 183.8 296.548 184.007 297.188 184.42C297.828 184.833 298.328 185.427 298.688 186.2C299.062 186.96 299.248 187.887 299.248 188.98C299.248 190.073 299.062 191.013 298.688 191.8C298.315 192.573 297.802 193.167 297.148 193.58C296.508 193.993 295.775 194.2 294.948 194.2C294.068 194.2 293.335 193.953 292.748 193.46C292.175 192.967 291.782 192.347 291.568 191.6L291.828 191.18V198.2H289.088ZM294.148 192.1C294.882 192.1 295.455 191.84 295.868 191.32C296.295 190.787 296.508 190.013 296.508 189C296.508 187.987 296.302 187.22 295.888 186.7C295.488 186.167 294.922 185.9 294.188 185.9C293.722 185.9 293.308 186.027 292.948 186.28C292.602 186.52 292.328 186.873 292.128 187.34C291.928 187.793 291.828 188.347 291.828 189C291.828 189.64 291.922 190.193 292.108 190.66C292.295 191.127 292.562 191.487 292.908 191.74C293.268 191.98 293.682 192.1 294.148 192.1ZM305.07 180.94V190.74C305.07 191.22 305.19 191.573 305.43 191.8C305.683 192.013 306.023 192.12 306.45 192.12C306.783 192.12 307.077 192.073 307.33 191.98C307.583 191.873 307.81 191.733 308.01 191.56L308.45 193.38C308.13 193.633 307.73 193.833 307.25 193.98C306.77 194.127 306.263 194.2 305.73 194.2C305.063 194.2 304.47 194.1 303.95 193.9C303.443 193.7 303.043 193.38 302.75 192.94C302.47 192.5 302.33 191.913 302.33 191.18V181.7L305.07 180.94ZM308.27 184V186.04H300.49V184H308.27ZM319.524 184L315.484 194.62C315.164 195.527 314.804 196.247 314.404 196.78C314.017 197.313 313.564 197.7 313.044 197.94C312.537 198.18 311.93 198.3 311.224 198.3C310.704 198.3 310.224 198.233 309.784 198.1C309.357 197.98 308.984 197.82 308.664 197.62L309.244 195.64C309.497 195.84 309.764 195.98 310.044 196.06C310.324 196.153 310.644 196.2 311.004 196.2C311.377 196.2 311.697 196.12 311.964 195.96C312.244 195.8 312.477 195.48 312.664 195L313.004 194.14L311.904 191.54L308.844 184H311.884L313.784 190L314.304 192L314.924 189.88L316.744 184H319.524ZM323.942 180.8V185.6L323.602 189.74H321.402L321.062 185.6V180.8H323.942ZM322.502 191.1C323.022 191.1 323.435 191.24 323.742 191.52C324.048 191.8 324.202 192.173 324.202 192.64C324.202 193.12 324.048 193.5 323.742 193.78C323.435 194.047 323.022 194.18 322.502 194.18C321.982 194.18 321.568 194.047 321.262 193.78C320.955 193.5 320.802 193.12 320.802 192.64C320.802 192.173 320.955 191.8 321.262 191.52C321.568 191.24 321.982 191.1 322.502 191.1Z" fill="black"/>
<g clip-path="url(#clip0_87_117)">
<path d="M203.226 32.9291H162.808C161.887 32.9302 161.004 33.2966 160.352 33.9479C159.701 34.5991 159.335 35.4822 159.333 36.4032V126.234L158.87 126.375L148.955 129.411C148.485 129.555 147.977 129.506 147.544 129.275C147.11 129.045 146.785 128.651 146.641 128.182L117.148 31.8428C117.004 31.3729 117.053 30.8652 117.284 30.4313C117.514 29.9975 117.908 29.6729 118.378 29.529L133.657 24.8504L177.953 11.2919L193.232 6.61336C193.465 6.54179 193.709 6.51679 193.951 6.53977C194.193 6.56275 194.429 6.63327 194.644 6.74728C194.859 6.8613 195.049 7.01658 195.204 7.20424C195.359 7.39189 195.475 7.60824 195.546 7.8409L203.085 32.4658L203.226 32.9291Z" fill="#F2F2F2"/>
<path d="M212.046 32.4659L202.96 2.78724C202.809 2.29274 202.562 1.83287 202.233 1.43391C201.904 1.03496 201.499 0.704734 201.043 0.462111C200.586 0.219488 200.086 0.0692193 199.571 0.0198979C199.057 -0.0294234 198.537 0.0231687 198.043 0.174664L176.561 6.75012L132.267 20.311L110.785 26.8887C109.788 27.1952 108.952 27.885 108.462 28.8069C107.972 29.7288 107.868 30.8074 108.173 31.8059L139.227 133.235C139.475 134.042 139.974 134.747 140.652 135.248C141.33 135.75 142.15 136.021 142.993 136.022C143.384 136.022 143.772 135.963 144.144 135.848L158.87 131.341L159.334 131.197V130.713L158.87 130.855L144.008 135.406C143.127 135.674 142.176 135.582 141.362 135.15C140.549 134.718 139.94 133.981 139.67 133.101L108.618 31.6692C108.484 31.2331 108.437 30.7747 108.48 30.3205C108.523 29.8663 108.656 29.4251 108.87 29.0221C109.084 28.6191 109.375 28.2624 109.728 27.9722C110.08 27.682 110.486 27.4642 110.922 27.3311L132.404 20.7534L176.697 7.19481L198.179 0.617046C198.51 0.516017 198.855 0.464504 199.201 0.464182C199.944 0.46585 200.666 0.705326 201.263 1.14753C201.86 1.58974 202.3 2.21144 202.518 2.92158L211.562 32.466L211.706 32.9292H212.187L212.046 32.4659Z" fill="#3F3D56"/>
<path d="M136.414 29.6047C135.968 29.6043 135.533 29.461 135.174 29.1956C134.815 28.9302 134.551 28.5568 134.42 28.1301L131.437 18.3858C131.356 18.124 131.329 17.849 131.355 17.5765C131.381 17.304 131.46 17.0393 131.589 16.7976C131.717 16.5558 131.892 16.3418 132.103 16.1676C132.314 15.9934 132.558 15.8625 132.82 15.7824L173.569 3.30692C174.098 3.1456 174.669 3.20062 175.157 3.45989C175.645 3.71915 176.01 4.16148 176.173 4.6898L179.156 14.4342C179.317 14.9628 179.262 15.5338 179.003 16.0219C178.743 16.51 178.301 16.8753 177.773 17.0377L137.023 29.5132C136.826 29.5737 136.621 29.6046 136.414 29.6047V29.6047Z" fill="#41BCC3"/>
<path d="M152.042 10.4119C154.6 10.4119 156.674 8.338 156.674 5.77969C156.674 3.22138 154.6 1.14746 152.042 1.14746C149.483 1.14746 147.41 3.22138 147.41 5.77969C147.41 8.338 149.483 10.4119 152.042 10.4119Z" fill="#41BCC3"/>
<path d="M152.042 8.71298C153.662 8.71298 154.975 7.39971 154.975 5.77971C154.975 4.15971 153.662 2.84644 152.042 2.84644C150.422 2.84644 149.109 4.15971 149.109 5.77971C149.109 7.39971 150.422 8.71298 152.042 8.71298Z" fill="white"/>
<path d="M247.577 134.838H169.293C168.771 134.838 168.27 134.63 167.901 134.261C167.532 133.892 167.325 133.391 167.324 132.87V39.0668C167.325 38.5449 167.532 38.0445 167.901 37.6754C168.27 37.3063 168.771 37.0987 169.293 37.0981H247.577C248.099 37.0987 248.6 37.3064 248.969 37.6754C249.338 38.0445 249.546 38.5449 249.546 39.0668V132.87C249.546 133.391 249.338 133.892 248.969 134.261C248.6 134.63 248.099 134.838 247.577 134.838V134.838Z" fill="#E6E6E6"/>
<path d="M211.562 32.4658H162.808C161.764 32.4673 160.763 32.8826 160.025 33.6207C159.287 34.3588 158.872 35.3594 158.87 36.4032V130.854L159.333 130.713V36.4032C159.335 35.4822 159.701 34.5991 160.352 33.9478C161.004 33.2966 161.887 32.9302 162.808 32.929H211.705L211.562 32.4658ZM254.063 32.4658H162.808C161.764 32.4673 160.763 32.8826 160.025 33.6207C159.287 34.3588 158.872 35.3594 158.87 36.4032V142.481C158.872 143.525 159.287 144.526 160.025 145.264C160.763 146.002 161.764 146.417 162.808 146.419H254.063C255.106 146.417 256.107 146.002 256.845 145.264C257.583 144.526 257.998 143.525 258 142.481V36.4032C257.998 35.3594 257.583 34.3588 256.845 33.6207C256.107 32.8826 255.106 32.4673 254.063 32.4658V32.4658ZM257.537 142.481C257.536 143.402 257.169 144.285 256.518 144.937C255.867 145.588 254.984 145.954 254.063 145.955H162.808C161.887 145.954 161.004 145.588 160.352 144.937C159.701 144.285 159.335 143.402 159.333 142.481V36.4032C159.335 35.4822 159.701 34.5991 160.352 33.9478C161.004 33.2966 161.887 32.9302 162.808 32.929H254.063C254.984 32.9302 255.867 33.2966 256.518 33.9478C257.169 34.5991 257.536 35.4822 257.537 36.4032V142.481Z" fill="#3F3D56"/>
<path d="M229.744 42.6568H187.127C186.574 42.6562 186.044 42.4363 185.654 42.0456C185.263 41.6548 185.043 41.1249 185.042 40.5723V30.3814C185.043 29.8287 185.263 29.2989 185.654 28.9081C186.044 28.5173 186.574 28.2975 187.127 28.2969H229.744C230.296 28.2975 230.826 28.5173 231.217 28.9081C231.608 29.2989 231.827 29.8287 231.828 30.3814V40.5723C231.827 41.1249 231.608 41.6548 231.217 42.0456C230.826 42.4363 230.296 42.6562 229.744 42.6568V42.6568Z" fill="#41BCC3"/>
<path d="M208.435 28.9918C210.994 28.9918 213.067 26.9178 213.067 24.3595C213.067 21.8012 210.994 19.7273 208.435 19.7273C205.877 19.7273 203.803 21.8012 203.803 24.3595C203.803 26.9178 205.877 28.9918 208.435 28.9918Z" fill="#41BCC3"/>
<path d="M208.435 27.181C209.993 27.181 211.257 25.9178 211.257 24.3595C211.257 22.8013 209.993 21.5381 208.435 21.5381C206.877 21.5381 205.614 22.8013 205.614 24.3595C205.614 25.9178 206.877 27.181 208.435 27.181Z" fill="white"/>
</g>
<defs>
<clipPath id="clip0_87_117">
<rect width="150" height="146.419" fill="white" transform="translate(108)"/>
</clipPath>
</defs>
</svg>
