<svg width="16" height="17" viewBox="0 0 16 17" fill="none" xmlns="http://www.w3.org/2000/svg">
<path d="M13.8333 15.3333H2.16667V6.16658H13.8333V15.3333ZM11.3333 0.333252V1.99992H4.66667V0.333252H3V1.99992H2.16667C1.24167 1.99992 0.5 2.74159 0.5 3.66659V15.3333C0.5 15.7753 0.675595 16.1992 0.988155 16.5118C1.30072 16.8243 1.72464 16.9999 2.16667 16.9999H13.8333C14.2754 16.9999 14.6993 16.8243 15.0118 16.5118C15.3244 16.1992 15.5 15.7753 15.5 15.3333V3.66659C15.5 2.74159 14.75 1.99992 13.8333 1.99992H13V0.333252H11.3333ZM12.1667 9.49992H8V13.6666H12.1667V9.49992Z" fill="#41BCC3"/>
</svg>
