<svg width="16" height="11" viewBox="0 0 16 11" fill="none" xmlns="http://www.w3.org/2000/svg">
<path d="M12.1667 4.25V1.33333C12.1667 1.11232 12.0789 0.900358 11.9226 0.744078C11.7663 0.587798 11.5543 0.5 11.3333 0.5H1.33333C1.11232 0.5 0.900358 0.587798 0.744078 0.744078C0.587797 0.900358 0.5 1.11232 0.5 1.33333V9.66667C0.5 9.88768 0.587797 10.0996 0.744078 10.2559C0.900358 10.4122 1.11232 10.5 1.33333 10.5H11.3333C11.5543 10.5 11.7663 10.4122 11.9226 10.2559C12.0789 10.0996 12.1667 9.88768 12.1667 9.66667V6.75L15.5 10.0833V0.916667L12.1667 4.25Z" fill="#41BCC3"/>
</svg>
